<svg width="190" height="50" viewBox="0 0 190 50" fill="none" xmlns="http://www.w3.org/2000/svg">
<mask id="mask0_16584_6750" style="mask-type:luminance" maskUnits="userSpaceOnUse" x="1" y="1" width="188" height="48">
<path d="M189 1H1V49H189V1Z" fill="white"/>
</mask>
<g mask="url(#mask0_16584_6750)">
<path d="M5.73434 43.0631C6.18204 43.3238 6.5502 43.712 6.79629 44.1827C7.05768 44.6868 7.18984 45.2534 7.17988 45.827C7.18989 46.4011 7.05774 46.9682 6.79629 47.473C6.54983 47.9442 6.18184 48.3335 5.73434 48.5961C5.27419 48.8665 4.75438 49.0057 4.22683 48.9997C3.76075 49.0079 3.30011 48.8939 2.88681 48.668C2.49083 48.4462 2.16058 48.1148 1.93206 47.7098V48.9383H1.1582V40.1641H1.96053V43.9036C2.19592 43.5148 2.52533 43.1982 2.91529 42.9858C3.31978 42.7727 3.76739 42.665 4.22013 42.6718C4.74863 42.6632 5.27027 42.798 5.73434 43.0631ZM5.29381 47.9521C5.6317 47.7513 5.90775 47.4536 6.08944 47.094C6.28629 46.704 6.38542 46.268 6.37754 45.827C6.38521 45.3865 6.28608 44.9511 6.08944 44.5617C5.90899 44.201 5.63263 43.9031 5.29381 43.7036C4.94891 43.5003 4.55886 43.3962 4.16318 43.4018C3.7663 43.395 3.37488 43.4992 3.02919 43.7036C2.69276 43.9046 2.41838 44.2023 2.23859 44.5617C2.04195 44.9511 1.94281 45.3865 1.95048 45.827C1.94261 46.268 2.04173 46.704 2.23859 47.094C2.41937 47.4525 2.6935 47.7501 3.02919 47.9521C3.37488 48.1564 3.7663 48.2606 4.16318 48.2539C4.55886 48.2594 4.94891 48.1553 5.29381 47.9521Z" fill="#1F2429"/>
<path d="M19.6706 46.0883H14.6992C14.7116 46.3862 14.7811 46.6783 14.9034 46.9475C15.0257 47.2167 15.1983 47.4574 15.4111 47.6554C15.8618 48.0624 16.4427 48.2761 17.0375 48.2537C17.3864 48.2584 17.7324 48.1879 18.0543 48.0467C18.3622 47.9091 18.6365 47.7003 18.8566 47.436L19.3088 47.9818C19.0439 48.3154 18.7044 48.5751 18.3206 48.7381C17.9066 48.9157 17.463 49.0046 17.0157 48.9996C16.4507 49.0108 15.8925 48.8701 15.3943 48.5907C14.9338 48.3286 14.5522 47.9372 14.2921 47.4605C14.0245 46.9623 13.8881 46.3985 13.8969 45.8269C13.8884 45.258 14.0187 44.6962 14.2754 44.1949C14.516 43.7262 14.8761 43.3368 15.3156 43.07C15.7672 42.798 16.2804 42.6586 16.8013 42.6663C17.3201 42.6583 17.8312 42.7978 18.2803 43.07C18.7154 43.3356 19.0715 43.7225 19.3088 44.1879C19.5635 44.6923 19.692 45.2562 19.6823 45.8269L19.6706 46.0883ZM15.3608 43.9579C14.9649 44.3502 14.7256 44.8851 14.6908 45.4548H18.9051C18.8726 44.8863 18.6363 44.3516 18.2436 43.9579C17.8514 43.5733 17.3299 43.367 16.7929 43.3841C16.2621 43.3706 15.7476 43.5768 15.3608 43.9579Z" fill="#1F2429"/>
<path d="M30.6773 43.2786C31.0905 43.6844 31.2977 44.2858 31.2988 45.0825V48.9431H30.53V47.9727C30.3426 48.3027 30.0656 48.5666 29.7343 48.7308C29.3434 48.921 28.9157 49.0141 28.4848 49.0028C27.8226 49.0028 27.2955 48.8372 26.9035 48.5062C26.7142 48.3507 26.5625 48.1507 26.4606 47.9223C26.3588 47.694 26.3097 47.4438 26.3173 47.1918C26.3093 46.9489 26.3545 46.7073 26.4495 46.4856C26.5444 46.2638 26.6866 46.0678 26.865 45.9126C27.2302 45.5897 27.812 45.4282 28.6104 45.4282H30.4964V45.0491C30.4964 44.5122 30.3541 44.1051 30.0676 43.8208C29.7812 43.5365 29.3625 43.4013 28.8131 43.4013C28.4437 43.3999 28.077 43.4659 27.7293 43.5962C27.4015 43.7141 27.0984 43.8969 26.8365 44.1349L26.4747 43.5067C26.795 43.2293 27.1628 43.0184 27.5585 42.8854C27.991 42.7374 28.4435 42.6632 28.8984 42.6661C29.6701 42.6673 30.2631 42.8714 30.6773 43.2786ZM29.7728 48.0166C30.1041 47.7918 30.3578 47.4615 30.4964 47.0743V46.0564H28.6322C27.616 46.0564 27.1079 46.4273 27.1079 47.169C27.1017 47.335 27.1345 47.5001 27.2034 47.6497C27.2723 47.7993 27.3753 47.9289 27.5032 48.0271C27.8305 48.2598 28.2223 48.3721 28.6171 48.3465C29.025 48.3541 29.4262 48.2383 29.7728 48.013V48.0166Z" fill="#1F2429"/>
<path d="M44.2084 42.7144V48.9406H43.4396V47.8052C43.2331 48.1766 42.9322 48.4804 42.5703 48.6827C42.1806 48.897 41.7456 49.0051 41.3056 48.9968C40.5306 48.9968 39.9165 48.7698 39.4631 48.3159C39.0097 47.862 38.7864 47.1975 38.7931 46.3224V42.7109H39.5954V46.2382C39.5954 46.8945 39.7501 47.3917 40.0594 47.7298C40.3687 48.0679 40.8092 48.2375 41.381 48.2387C42.0052 48.2387 42.4982 48.0398 42.86 47.642C43.2218 47.2443 43.4027 46.6898 43.4027 45.9784V42.7109L44.2084 42.7144Z" fill="#1F2429"/>
<path d="M55.0825 48.5614C54.9206 48.7101 54.7305 48.8214 54.5247 48.8878C54.2999 48.9625 54.0655 49.0004 53.8296 49.0002C53.2713 49.0002 52.8419 48.8422 52.5415 48.5264C52.2411 48.2105 52.0904 47.7647 52.0893 47.1892V43.4321H51.0273V42.7302H52.0893V41.3701H52.8916V42.7302H54.699V43.4321H52.8849V47.1489C52.8642 47.4565 52.9599 47.7603 53.1512 47.9947C53.2521 48.0957 53.372 48.1737 53.5031 48.2235C53.6344 48.2733 53.7741 48.294 53.9133 48.2842C54.0764 48.2853 54.2383 48.2574 54.3924 48.2017C54.5401 48.1514 54.6767 48.0709 54.7944 47.9648L55.0825 48.5614Z" fill="#1F2429"/>
<path d="M61.9527 41.1766C61.8987 41.1209 61.8562 41.0545 61.8273 40.9812C61.7986 40.9079 61.7842 40.8293 61.7852 40.7501C61.7847 40.6727 61.7994 40.5961 61.8282 40.525C61.857 40.4537 61.8994 40.3895 61.9527 40.3359C62.0072 40.2781 62.0726 40.2327 62.1446 40.2025C62.2167 40.1723 62.2939 40.1579 62.3714 40.1604C62.4486 40.159 62.5253 40.1738 62.5969 40.204C62.6685 40.2341 62.7337 40.279 62.7885 40.3359C62.8422 40.388 62.8848 40.4513 62.9137 40.5217C62.9425 40.5922 62.957 40.6681 62.9561 40.7448C62.9582 40.8261 62.9444 40.9069 62.9156 40.9823C62.8869 41.0578 62.8435 41.1262 62.7885 41.1835C62.734 41.2409 62.6689 41.286 62.5972 41.3162C62.5255 41.3464 62.4486 41.3609 62.3714 41.359C62.2935 41.3602 62.216 41.3446 62.1441 41.3132C62.072 41.2818 62.0069 41.2353 61.9527 41.1766ZM61.9645 42.7138H62.7668V48.9399H61.9645V42.7138Z" fill="#1F2429"/>
<path d="M71.6775 41.105C71.4841 41.3504 71.3892 41.665 71.4129 41.9823V42.7159H73.242V43.4178H71.4346V48.9332H70.6323V43.4319H69.5703V42.7299H70.6323V41.9613C70.6198 41.7148 70.6549 41.4684 70.7355 41.2365C70.8161 41.0046 70.9405 40.7921 71.1013 40.6119C71.4151 40.2807 71.8578 40.1152 72.4296 40.1152C72.6514 40.1147 72.8721 40.1485 73.0845 40.2152C73.2783 40.2741 73.4589 40.3731 73.6155 40.5065L73.3441 41.133C73.0954 40.9227 72.7825 40.8135 72.4631 40.8259C72.3208 40.8128 72.1775 40.8309 72.0423 40.8789C71.907 40.927 71.7828 41.0039 71.6775 41.105Z" fill="#1F2429"/>
<path d="M85.3345 42.7144V48.9406H84.5623V47.8052C84.3557 48.177 84.0541 48.4809 83.6914 48.6826C83.3017 48.897 82.8667 49.005 82.4267 48.9967C81.6517 48.9967 81.0375 48.7697 80.5842 48.3159C80.1308 47.8619 79.9075 47.1975 79.9142 46.3224V42.7109H80.7165V46.2381C80.7165 46.8944 80.8706 47.3917 81.1788 47.7297C81.4871 48.0678 81.9276 48.2375 82.5004 48.2386C82.7734 48.2536 83.0463 48.2083 83.3014 48.1056C83.5565 48.0028 83.7881 47.8448 83.9811 47.642C84.3429 47.2443 84.5233 46.6897 84.5222 45.9784V42.7109L85.3345 42.7144Z" fill="#1F2429"/>
<path d="M92.9551 40.1592H93.7576V48.9333H92.9551V40.1592Z" fill="#1F2429"/>
<path d="M111.542 48.5961C111.083 48.335 110.705 47.9432 110.45 47.4659C110.183 46.9656 110.047 46.4002 110.055 45.8269C110.047 45.2558 110.183 44.6926 110.45 44.1949C110.707 43.7204 111.084 43.3306 111.542 43.0701C112.024 42.796 112.567 42.6571 113.117 42.6665C113.592 42.6579 114.061 42.7654 114.489 42.9806C114.886 43.183 115.218 43.502 115.443 43.8983L114.846 44.3248C114.661 44.0278 114.404 43.7883 114.101 43.6317C113.794 43.4767 113.457 43.398 113.117 43.4017C112.713 43.3949 112.314 43.4989 111.96 43.7036C111.618 43.9015 111.34 44.1997 111.157 44.5617C110.961 44.9511 110.861 45.3864 110.87 45.8269C110.86 46.2698 110.959 46.7078 111.157 47.0992C111.342 47.4582 111.62 47.7542 111.96 47.952C112.314 48.1567 112.713 48.2607 113.117 48.2539C113.457 48.2567 113.793 48.18 114.101 48.0292C114.404 47.8759 114.662 47.6386 114.846 47.3431L115.443 47.7678C115.217 48.1656 114.883 48.4847 114.484 48.6855C114.057 48.8992 113.59 49.0067 113.117 48.9996C112.567 49.0091 112.024 48.8701 111.542 48.5961Z" fill="#1F2429"/>
<path d="M127.264 43.3485C127.711 43.8024 127.931 44.4634 127.926 45.3314V48.9411H127.124V45.4139C127.124 44.7682 126.97 44.2733 126.661 43.9346C126.354 43.5959 125.911 43.4257 125.34 43.4257C124.697 43.4257 124.191 43.6252 123.819 44.0241C123.447 44.423 123.261 44.9735 123.261 45.6754V48.9411H122.459V40.167H123.254V43.8118C123.474 43.4475 123.786 43.156 124.157 42.9712C124.57 42.7675 125.023 42.666 125.479 42.6746C126.229 42.6699 126.824 42.8946 127.264 43.3485Z" fill="#1F2429"/>
<path d="M139.402 43.2776C139.817 43.6835 140.025 44.2848 140.024 45.0815V48.9422H139.256V47.9718C139.068 48.3015 138.791 48.5653 138.459 48.7298C138.068 48.9201 137.642 49.0131 137.211 49.0019C136.548 49.0019 136.02 48.8363 135.63 48.5052C135.44 48.3498 135.288 48.1499 135.186 47.9216C135.084 47.6932 135.034 47.443 135.042 47.1909C135.034 46.948 135.08 46.7066 135.174 46.4849C135.269 46.2632 135.411 46.0671 135.589 45.9116C135.955 45.5887 136.537 45.4272 137.335 45.4272H139.221V45.0482C139.221 44.5113 139.078 44.1041 138.793 43.8198C138.506 43.5356 138.089 43.4004 137.539 43.4004C137.17 43.3991 136.802 43.4651 136.454 43.5952C136.126 43.7135 135.823 43.8964 135.562 44.1339L135.199 43.5058C135.52 43.2279 135.889 43.0171 136.285 42.8845C136.717 42.7364 137.17 42.6623 137.625 42.6651C138.396 42.6663 138.989 42.8705 139.402 43.2776ZM138.5 48.0156C138.829 47.7898 139.082 47.4597 139.221 47.0733V46.0555H137.359C136.341 46.0555 135.833 46.4264 135.833 47.1681C135.827 47.334 135.86 47.4989 135.928 47.6484C135.997 47.798 136.1 47.9277 136.228 48.0262C136.554 48.2553 136.943 48.3656 137.335 48.3403C137.744 48.3503 138.147 48.2363 138.496 48.0121L138.5 48.0156Z" fill="#1F2429"/>
<path d="M152.412 43.3482C152.854 43.802 153.074 44.463 153.073 45.3311V48.9408H152.27V45.4135C152.27 44.7678 152.117 44.2729 151.808 43.9342C151.5 43.5955 151.058 43.4253 150.486 43.4253C149.844 43.4253 149.337 43.6248 148.966 44.0238C148.593 44.4227 148.408 44.9731 148.408 45.675V48.9408H147.605V42.7146H148.38V43.8641C148.598 43.4881 148.913 43.184 149.289 42.9866C149.708 42.7699 150.171 42.6622 150.639 42.6726C151.38 42.669 151.972 42.8942 152.412 43.3482Z" fill="#1F2429"/>
<path d="M161.654 48.5961C161.197 48.3341 160.819 47.9424 160.564 47.466C160.296 46.9656 160.16 46.4002 160.168 45.827C160.16 45.2559 160.296 44.6926 160.564 44.195C160.821 43.7212 161.198 43.3316 161.654 43.0701C162.138 42.7961 162.681 42.6571 163.231 42.6665C163.705 42.658 164.174 42.7655 164.602 42.9806C164.999 43.1831 165.33 43.502 165.557 43.8984L164.959 44.3248C164.774 44.0277 164.517 43.7883 164.214 43.6317C163.907 43.4768 163.571 43.398 163.231 43.4018C162.826 43.3949 162.427 43.499 162.073 43.7037C161.731 43.9015 161.452 44.1998 161.271 44.5617C161.074 44.9512 160.975 45.3865 160.983 45.827C160.974 46.2699 161.072 46.7079 161.271 47.0992C161.455 47.4582 161.733 47.7542 162.073 47.9521C162.427 48.1568 162.826 48.2608 163.231 48.2539C163.57 48.2568 163.906 48.1801 164.214 48.0293C164.517 47.8759 164.775 47.6387 164.959 47.3432L165.557 47.7678C165.33 48.1656 164.996 48.4848 164.597 48.6856C164.171 48.8993 163.703 49.0067 163.231 48.9997C162.681 49.0091 162.138 48.8702 161.654 48.5961Z" fill="#1F2429"/>
<path d="M177.78 46.0883H172.811C172.823 46.3863 172.892 46.6785 173.015 46.9478C173.136 47.217 173.31 47.4577 173.522 47.6554C173.973 48.0624 174.555 48.2761 175.149 48.2537C175.498 48.2581 175.844 48.1876 176.165 48.0467C176.473 47.9087 176.748 47.7 176.968 47.436L177.421 47.9818C177.154 48.3148 176.814 48.5745 176.43 48.7381C176.016 48.916 175.573 49.0049 175.126 48.9996C174.561 49.0108 174.003 48.8701 173.506 48.5907C173.045 48.3291 172.664 47.9377 172.404 47.4605C172.136 46.9623 172 46.3985 172.008 45.8269C171.999 45.2579 172.129 44.6959 172.387 44.1949C172.627 43.7259 172.986 43.3363 173.426 43.07C173.877 42.7982 174.391 42.6588 174.911 42.6663C175.43 42.6583 175.942 42.7978 176.392 43.07C176.826 43.336 177.183 43.723 177.421 44.1879C177.674 44.6925 177.802 45.2564 177.792 45.8269L177.78 46.0883ZM173.471 43.9579C173.078 44.3518 172.842 44.8865 172.811 45.4548H177.025C176.993 44.8865 176.757 44.3518 176.365 43.9579C175.972 43.5735 175.45 43.3672 174.913 43.3841C174.379 43.3685 173.861 43.5748 173.471 43.9579Z" fill="#1F2429"/>
<path d="M20.4636 4.7994C22.5496 6.64315 23.5925 9.17773 23.5925 12.4031C23.5925 15.6285 22.5474 18.1561 20.457 19.9857C18.3732 21.8119 15.4888 22.725 11.8038 22.725H4.05188V32.2731H1V2.03027H11.8038C15.4888 2.03261 18.3754 2.95566 20.4636 4.7994ZM18.2861 17.9607C19.797 16.6493 20.553 14.7985 20.5541 12.4084C20.5541 9.96095 19.7981 8.08152 18.2861 6.77008C16.7741 5.45864 14.5883 4.8035 11.7284 4.80467H4.05188V19.9173H11.7217C14.5815 19.9173 16.7675 19.2633 18.2794 17.9554L18.2861 17.9607Z" fill="#1F2429"/>
<path d="M45.9436 32.2762L39.339 22.5491C38.5719 22.6368 37.8009 22.6801 37.0292 22.679H29.289V32.2692H26.2305V2.02637H37.036C40.7209 2.02637 43.6076 2.94824 45.6957 4.79199C47.7839 6.63574 48.8285 9.1703 48.8297 12.3957C48.8297 14.7577 48.2591 16.7523 47.1178 18.3797C45.9765 20.007 44.348 21.1804 42.2318 21.8998L49.2836 32.2692L45.9436 32.2762ZM43.5099 17.976C45.0229 16.6517 45.779 14.794 45.7778 12.4027C45.7778 9.9553 45.0218 8.07587 43.5099 6.76443C41.9979 5.45298 39.8125 4.79783 36.9538 4.799H29.289V19.9642H36.9606C39.8137 19.9642 41.9968 19.3016 43.5099 17.976Z" fill="#1F2429"/>
<path d="M73.508 31.7576C72.1209 31.0224 70.9412 29.9203 70.0859 28.5603L71.9 26.4C73.4946 28.8779 75.5706 30.1162 78.1277 30.115C81.7011 30.115 83.4878 27.8975 83.4878 23.4625V4.7998H71.9402V2.03418H86.4944V23.3326C86.4944 26.5018 85.7864 28.8855 84.3704 30.4835C82.9545 32.0817 80.858 32.8807 78.0808 32.8807C76.4928 32.895 74.9245 32.5098 73.508 31.7576Z" fill="#1F2429"/>
<path d="M111.386 29.5132V32.277H90.9727V2.03418H110.768V4.7998H94.0176V15.5569H108.947V18.2787H94.0241V29.5097L111.386 29.5132Z" fill="#1F2429"/>
<path d="M147.56 4.7998H137.414V2.03418H158.618L159.769 4.7998H150.61V32.277H147.56V4.7998Z" fill="#1F2429"/>
<path d="M60.1714 33.5698C58.2611 33.5698 56.4291 32.7747 55.0783 31.3596C53.7276 29.9446 52.9688 28.0252 52.9688 26.024V8.54579C52.9688 6.54453 53.7276 4.62524 55.0783 3.21012C56.4291 1.79501 58.2611 1 60.1714 1C62.0808 1.00279 63.9112 1.79868 65.2614 3.21319C66.6116 4.62769 67.3712 6.54538 67.3739 8.54579V26.024C67.3712 28.0244 66.6116 29.9421 65.2614 31.3566C63.9112 32.7711 62.0808 33.567 60.1714 33.5698ZM60.1714 3.92708C59.0013 3.92661 57.8791 4.41286 57.0511 5.27893C56.2232 6.14501 55.7573 7.32004 55.756 8.54579V26.024C55.7573 27.2485 56.2223 28.4225 57.0487 29.2883C57.8752 30.1542 58.9958 30.6413 60.1646 30.6427C61.3336 30.6413 62.4544 30.1543 63.2811 29.2884C64.1078 28.4226 64.5731 27.2486 64.5749 26.024V8.54579C64.5731 7.32231 64.1088 6.1494 63.2835 5.28377C62.4582 4.41814 61.3392 3.93033 60.1714 3.92708Z" fill="#00A8E2"/>
<path d="M189 2.03418L176.161 32.277H173.146L160.309 2.03418H163.622L174.721 28.4146L185.901 2.03418H189Z" fill="#00A8E2"/>
<path d="M136.764 22.5337C135.795 24.6509 134.274 26.4382 132.378 27.6899C130.481 28.9417 128.286 29.607 126.045 29.6092C122.89 29.6092 119.866 28.2965 117.635 25.9599C115.405 23.6233 114.152 20.4543 114.152 17.1499C114.152 13.8454 115.405 10.6763 117.635 8.33978C119.866 6.00321 122.89 4.69053 126.045 4.69053C128.286 4.69237 130.481 5.35728 132.378 6.60873C134.274 7.86016 135.795 9.64726 136.764 11.7643H139.802C138.755 8.82675 136.877 6.29446 134.418 4.50673C131.959 2.719 129.037 1.76123 126.045 1.76172C124.116 1.76149 122.206 2.15957 120.423 2.93323C118.641 3.70689 117.022 4.84095 115.659 6.27057C114.295 7.70018 113.214 9.39732 112.477 11.265C111.74 13.1326 111.361 15.1342 111.363 17.1551C111.363 19.1749 111.742 21.175 112.48 23.041C113.217 24.9072 114.299 26.6028 115.662 28.0311C117.025 29.4594 118.644 30.5924 120.425 31.3654C122.206 32.1384 124.115 32.5363 126.043 32.5363C129.036 32.5365 131.958 31.5786 134.415 29.7909C136.874 28.0032 138.753 25.471 139.8 22.5337H136.764Z" fill="#1F2429"/>
</g>
</svg>
