<svg width="92" height="70" viewBox="0 0 92 70" fill="none" xmlns="http://www.w3.org/2000/svg">
<path fill-rule="evenodd" clip-rule="evenodd" d="M47.2378 0.350245C45.8452 0.85373 44.0386 2.31701 43.2686 3.56594C42.6666 4.54178 42.6399 4.55108 42.4516 3.85282C42.3447 3.45555 42.1377 3.1308 41.9919 3.1308C41.846 3.1308 41.1278 3.8387 40.3958 4.70415C39.4004 5.88087 38.7669 6.33173 37.8819 6.49282C35.8603 6.86121 34.0746 8.11302 33.4221 9.61931C32.1608 12.5311 31.5183 13.5724 30.7924 13.8808C30.3771 14.0573 29.7001 14.8605 29.2884 15.6659C28.8766 16.4711 28.3113 17.3192 28.0319 17.5502C27.7477 17.7854 27.5239 18.4613 27.5239 19.0851C27.5239 19.698 27.2561 20.583 26.929 21.0515C26.1039 22.2331 25.9481 23.0635 26.2488 24.6818C26.4593 25.8152 26.3998 26.1945 25.9291 26.7166C24.6086 28.1825 24.2681 29.913 24.9901 31.4925C25.3062 32.1843 25.181 32.6005 24.0244 34.7015C22.3881 37.6736 22.2477 39.33 23.5318 40.5164L24.3685 41.2894L23.6287 42.3253C23.1294 43.0242 22.8455 43.9574 22.7557 45.1928C22.6324 46.8926 22.691 47.0848 23.5685 47.8643C24.288 48.5032 24.4828 48.9174 24.383 49.5955C24.1766 50.9965 25.1343 51.8896 27.0852 52.1164L28.7388 52.3087L27.8899 54.1134C27.1457 55.6957 27.0279 56.4023 26.9342 59.8491C26.8756 62.0113 26.7533 63.78 26.6622 63.78C26.5711 63.78 26.0627 63.5272 25.5325 63.2185C24.4702 62.5995 24.4612 62.4172 25.3098 58.596C25.8857 56.0012 25.3909 54.6108 22.9669 52.0134C21.9016 50.8723 20.7263 49.2621 20.3545 48.4358L19.6788 46.933L19.4377 48.0562C18.9889 50.1439 19.9061 54.9933 21.4107 58.493C21.7507 59.283 21.9084 59.9293 21.7619 59.9293C21.0115 59.9293 16.8308 54.6445 14.8629 51.208C13.686 49.1523 13.7658 48.4034 15.3715 46.4459C18.7147 42.3708 19.4702 40.8918 19.4741 38.4165C19.476 37.3013 18.6937 33.8508 18.2926 33.2038C18.1806 33.0229 17.7129 33.5831 17.2532 34.4486C16.7938 35.3144 15.7971 36.9551 15.0384 38.0949C14.2799 39.2351 13.3547 41.1672 12.9823 42.3888C12.4331 44.1913 12.2457 44.5035 11.9879 44.0446C11.4351 43.0598 10.7887 37.7561 10.7865 34.1835C10.7839 30.2702 10.4868 30.6209 14.1077 30.2612C15.1388 30.1585 16.515 29.854 17.1659 29.5841C18.479 29.0399 21.2308 26.5177 21.8698 25.2726C22.466 24.1106 22.727 22.442 22.3494 22.2093C21.8888 21.9256 17.7647 23.2275 15.4633 24.3834C14.3949 24.9199 13.0319 25.8743 12.4344 26.5042L11.3482 27.6488L11.5852 26.5411C12.3346 23.0363 15.1304 16.9296 16.337 16.163C16.7355 15.9098 18.4942 15.3271 20.2451 14.8679C21.996 14.4083 24.1576 13.6376 25.049 13.1546C26.8257 12.1913 28.7347 10.0041 29.9985 7.48182C30.446 6.58909 31.1861 5.46114 31.6429 4.97595C32.0993 4.49076 32.3636 4.09349 32.2294 4.09349C31.6087 4.09349 23.6715 7.11696 22.4737 7.8101C21.7323 8.23881 20.5921 9.23872 19.9402 10.032C19.288 10.8252 18.6483 11.4741 18.5189 11.4741C18.3892 11.4741 18.283 10.4886 18.283 9.28429C18.283 7.37272 18.1288 6.80184 17.069 4.79175C16.4014 3.52518 15.7517 2.48901 15.6252 2.48901C15.4987 2.48901 15.3773 2.97003 15.3551 3.55823C15.3329 4.14644 14.935 5.82504 14.4711 7.28896C13.4658 10.4617 13.4153 12.1136 14.2661 13.997L14.8983 15.397L13.7266 17.0686C13.0821 17.9879 12.1926 19.7038 11.75 20.8811C11.3073 22.0588 10.8728 23.0202 10.7842 23.018C10.6957 23.0154 10.1887 22.2735 9.65752 21.3689C8.59551 19.56 6.58257 17.892 5.46229 17.892C4.76985 17.892 4.75955 17.936 5.1745 19.0953C5.41143 19.7574 5.61166 21.3538 5.61939 22.6435C5.64096 26.2215 6.12287 27.679 7.72473 29.0139L9.08579 30.1479L9.26896 34.3687C9.36972 36.6904 9.68134 39.7312 9.96141 41.1261C10.2412 42.521 10.4057 43.727 10.3265 43.8059C10.2473 43.8848 9.67458 43.563 9.05392 43.0909C7.41923 41.8481 4.8616 40.9737 2.2663 40.7699L0 40.5921L1.80853 42.3185C2.80358 43.2681 4.12795 44.8539 4.75214 45.8426C5.37602 46.8316 6.40004 47.9567 7.02713 48.343C7.93622 48.9033 10.8364 49.6484 12.1472 49.6587C12.2773 49.6597 13.2498 51.1409 14.3083 52.9498C15.367 54.7587 16.9602 57.0961 17.8487 58.1435C18.7372 59.1909 19.4267 60.0856 19.3807 60.1311C19.3347 60.177 18.3786 59.9838 17.2557 59.7018C15.3744 59.2294 14.9708 59.2313 12.1141 59.7249C10.4089 60.0195 8.61515 60.2582 8.12841 60.2553C6.85233 60.2479 7.01715 60.9234 8.6599 62.4329C12.0214 65.5215 14.606 65.9361 18.4217 63.9986C19.701 63.3487 21.0627 62.8173 21.4477 62.8173C21.8328 62.8173 23.2489 63.5195 24.5945 64.3779C27.9096 66.4922 29.1583 67.092 32.3025 68.0794C36.5727 69.4204 40.6169 69.9605 46.678 69.9987C55.8893 70.0571 62.6229 68.2087 68.0633 64.1285C69.0245 63.4075 70.1654 62.8173 70.5981 62.8173C71.0307 62.8173 72.5077 63.3228 73.8803 63.9405C77.1932 65.4317 78.0073 65.5616 79.9665 64.9131C81.6131 64.3679 85.1471 61.4526 85.1471 60.6394C85.1471 60.4109 84.6961 60.2502 84.0548 60.2502C83.4541 60.2502 81.8243 60.015 80.4333 59.7274C78.2658 59.2791 77.6046 59.2628 75.8115 59.6129C74.6607 59.8375 73.5018 60.1003 73.2362 60.1966C72.9629 60.2957 73.1431 59.8927 73.6518 59.2679C75.0006 57.6111 78.5691 52.2304 79.2074 50.8909C79.6533 49.9549 80.0042 49.6703 80.9242 49.4983C83.6994 48.9794 88.0408 46.1276 90.4726 43.226C92.5551 40.7417 92.548 40.6756 90.2054 40.6756C87.4343 40.6756 85.4739 41.4088 83.477 43.192C82.4144 44.1409 81.8954 44.4525 82.0554 44.045C82.575 42.7216 82.8808 39.4116 82.8873 35.0477L82.8937 30.543L84.3269 29.3486C85.9693 27.98 86.5008 26.5581 87.0503 22.0636C87.2335 20.5634 87.4768 19.0113 87.5905 18.614C87.7672 17.9985 87.6751 17.892 86.9663 17.892C85.0557 17.892 83.0357 20.8696 82.4115 24.607L82.1742 26.027L81.447 23.8048C80.48 20.8497 79.5924 18.9602 78.4029 17.3234C77.2415 15.7247 77.235 15.663 78.0649 14.0412C78.9129 12.3845 78.8771 10.6831 77.9204 7.15836C77.4868 5.56094 77.0161 3.76874 76.8742 3.17605L76.6163 2.09784L75.3286 4.59826C74.1598 6.86763 74.0429 7.31624 74.0609 9.45629L74.0812 11.8142L72.2904 9.91485C71.3056 8.87034 70.0585 7.79469 69.5193 7.52418C67.9825 6.75403 60.3099 4.03605 60.1425 4.20259C59.8982 4.44647 61.1508 6.6767 62.7394 8.82702C64.7276 11.5174 67.5463 13.5477 70.4584 14.3865C76.5935 16.1534 76.1734 15.9271 77.4704 18.1619C78.5868 20.0863 80.3476 24.6096 80.8006 26.7166L81.0073 27.6793L79.8925 26.4731C78.6077 25.0829 76.8043 24.2095 73.7751 23.5089C72.6004 23.2375 71.2741 22.8768 70.8282 22.7077C69.7801 22.3107 69.7827 22.6698 70.8443 24.9517C71.7341 26.8639 73.2178 28.5955 74.5734 29.3034C75.0434 29.5488 76.4921 29.9028 77.7926 30.0902C79.0931 30.2773 80.5044 30.5054 80.9287 30.5969L81.7 30.7634L81.514 35.9603C81.3388 40.8437 80.7117 44.5263 80.0554 44.5263C79.9243 44.5263 79.5638 43.5514 79.2544 42.3603C78.9447 41.1691 78.3695 39.6606 77.9758 39.0085C77.5824 38.3561 76.6083 36.7366 75.8115 35.409C75.0148 34.0818 74.2779 32.9911 74.1742 32.985C73.7268 32.9593 72.827 38.1299 73.0105 39.6731C73.2603 41.7766 73.8005 42.7617 76.1469 45.3943C77.216 46.5935 78.1802 47.9284 78.2896 48.3604C78.4284 48.9085 78.1605 49.7771 77.4034 51.233C75.6229 54.656 71.0304 60.4045 70.4992 59.8754C70.4068 59.783 70.6116 59.0715 70.9548 58.2943C72.3638 55.1004 73.5661 47.957 72.8196 47.2132C72.7153 47.1092 72.4037 47.5642 72.1268 48.2246C71.85 48.885 70.7085 50.3926 69.5898 51.5744C66.8999 54.4169 66.5467 55.5911 67.2524 59.3449C67.5334 60.8409 67.7636 62.1601 67.7636 62.2763C67.7636 62.3925 67.168 62.8802 66.4399 63.3606L65.1165 64.2338L64.4321 63.2849C63.2732 61.6785 61.4221 60.1626 58.4959 58.423C54.3255 55.9444 53.9958 55.6309 53.3971 53.5775C52.779 51.4583 52.937 47.7754 53.8481 43.0823L54.4085 40.1942L55.9396 40.0963C57.816 39.976 58.1367 39.5582 59.0634 36.0226C59.4337 34.6106 60.1206 32.1105 60.5903 30.4669C61.4009 27.6296 61.4234 27.3565 61.0387 25.0733C60.7236 23.2041 60.7191 22.5655 61.0188 22.2058C61.3259 21.8368 61.3043 21.7427 60.9132 21.7427C60.4892 21.7427 59.7157 20.2605 59.7157 19.4487C59.7157 19.2985 60.411 19.1756 61.2609 19.1756C62.9792 19.1756 63.5787 18.7789 63.5787 17.642C63.5787 16.9662 63.4711 16.9017 62.6441 17.083C61.1414 17.4119 60.6679 16.4249 60.891 13.4283C61.0587 11.1753 61.0091 10.9013 60.233 9.77526C59.6336 8.90531 59.3937 8.14447 59.3937 7.11183C59.3937 5.51345 58.7354 3.95871 57.928 3.65001C57.1735 3.36152 56.819 3.68691 56.8136 4.67399C56.8094 5.37932 56.1958 6.9562 56.1794 6.30317C56.1768 6.19503 56.0278 5.33439 55.8481 4.39096C55.4998 2.55993 54.4925 1.20832 52.8321 0.344144C51.7321 -0.228333 51.2454 0.213863 51.5676 1.49327C51.7418 2.1848 51.6803 2.24577 50.9907 2.0619C50.5664 1.94862 49.977 1.85396 49.6812 1.85171C49.3473 1.84883 49.0631 1.48268 48.9314 0.884534C48.6958 -0.185332 48.7083 -0.181479 47.2378 0.350245ZM47.6673 2.40879C47.3212 3.88073 44.5855 5.9319 44.5855 4.71923C44.5855 4.07455 45.5523 2.52463 46.265 2.02724C47.3949 1.23816 47.9093 1.37807 47.6673 2.40879ZM54.2134 2.61384C54.4336 2.87826 54.8038 3.78864 55.0363 4.63708C55.2684 5.48521 55.5626 6.43185 55.6901 6.74087C56.03 7.5659 55.1451 7.45711 54.31 6.57144C53.5329 5.74674 52.6335 3.44271 52.6335 2.2769C52.6335 1.62677 52.7275 1.55392 53.2232 1.81834C53.5477 1.99162 53.9932 2.34942 54.2134 2.61384ZM70.4033 3.19498C69.5399 4.05562 70.3093 6.01886 71.5097 6.01886C73.166 6.01886 73.8346 4.22666 72.5206 3.30954C71.6639 2.71139 70.9284 2.6716 70.4033 3.19498ZM19.6424 3.65258C19.353 3.94106 19.1628 4.55044 19.2172 5.01638C19.4026 6.60995 22.0513 6.2207 22.0513 4.59986C22.0513 3.21295 20.64 2.65812 19.6424 3.65258ZM41.3615 7.31399C41.0081 8.16501 40.1724 8.78626 39.8344 8.44964C39.6164 8.2324 40.315 6.35227 40.9704 5.39151L41.5273 4.57483L41.6326 5.49163C41.6905 5.99607 41.5685 6.81596 41.3615 7.31399ZM58.1653 6.72996C57.6232 7.27035 57.3979 6.8673 57.6599 5.82632C57.8865 4.92653 57.893 4.92461 58.2123 5.6386C58.4392 6.14529 58.4254 6.47068 58.1653 6.72996ZM49.4143 6.67701C49.4143 7.35539 46.9475 8.07098 44.9236 7.97985C43.7492 7.9269 44.5398 7.30116 46.4169 6.79799C48.3455 6.28135 49.4143 6.23803 49.4143 6.67701ZM36.8595 10.0403C36.8595 10.4873 36.6113 11.3897 36.3081 12.0459L35.7563 13.239L35.6462 11.8874C35.5352 10.5245 35.9752 9.22781 36.5489 9.22781C36.7198 9.22781 36.8595 9.59331 36.8595 10.0403ZM43.9005 10.186C44.2421 10.1895 44.2578 10.2922 43.9697 10.6382C43.4833 11.2225 41.6458 11.5566 40.5004 11.2687L39.5958 11.0415L40.8835 10.4556C41.5917 10.1334 42.4609 9.93988 42.815 10.0256C43.1691 10.1116 43.6578 10.1838 43.9005 10.186ZM52.4136 11.5296C52.8002 11.7363 54.0567 12.1332 55.2056 12.4117C57.6283 12.999 57.8814 13.3385 58.5667 16.9242L58.9971 19.1756H57.7903C56.3632 19.1756 54.8869 20.1951 54.8869 21.1802V21.8547L55.6112 21.1805C56.6848 20.1816 57.9528 19.9643 58.9411 20.61C59.9677 21.2803 59.744 21.537 58.0349 21.6513C56.7231 21.7389 55.2088 22.4609 55.2088 22.999C55.2088 23.1524 56.2953 23.2397 57.6232 23.1925L60.0376 23.1069V25.4378C60.0376 26.914 59.7414 28.8705 59.2302 30.7724C58.786 32.4247 58.1898 34.756 57.9049 35.9533C57.4745 37.7644 57.234 38.2095 56.4749 38.6007C55.2796 39.2171 54.6046 39.1959 50.8179 38.4242C44.8402 37.2057 42.2198 35.9122 41.0335 33.5944L40.3488 32.2565L38.8187 32.4587C36.9349 32.7077 36.4314 32.2607 35.7927 29.7728C35.3111 27.8978 34.9071 27.5792 32.964 27.5413C30.3806 27.4913 28.9227 28.6054 29.3283 30.3199C29.4702 30.921 29.4326 31.1052 29.2114 30.8883C28.5386 30.2288 28.5058 29.2668 29.1216 28.2572C29.9103 26.9643 30.7846 26.3957 33.4865 25.4189C36.461 24.3436 37.8208 23.4364 38.3494 22.1753C38.9182 20.8186 39.2562 20.7877 38.9897 22.1169C38.6803 23.6585 37.3762 25.1279 35.4952 26.054L33.8013 26.888L35.4109 26.6803C38.7173 26.2539 39.7513 25.082 41.3229 19.9778C42.7519 15.3364 43.7524 14.074 45.7927 14.3381C46.3609 14.4119 46.292 13.7175 45.6624 13.0237C45.1582 12.4682 45.1798 12.4352 46.0648 12.4044C47.9409 12.3389 49.2765 12.5074 50.3186 12.9403C51.3542 13.3703 51.378 13.3625 51.1704 12.6691C51.0529 12.2766 50.7535 11.6336 50.5046 11.2401C50.0688 10.5509 50.0823 10.5364 50.8816 10.8394C51.3378 11.0123 52.0273 11.3229 52.4136 11.5296ZM33.3136 15.045C33.3162 15.6852 33.1098 16.3815 32.8546 16.5927C32.4702 16.9107 32.3562 16.7929 32.1895 15.9066C31.9393 14.5771 32.5574 12.697 33.01 13.4104C33.1742 13.669 33.3107 14.4045 33.3136 15.045ZM39.3608 13.781C39.1271 14.4799 37.665 15.3393 36.3692 15.5392L35.089 15.7369L35.8468 14.9131C36.2637 14.46 37.1328 13.9488 37.7783 13.7775C39.3991 13.3471 39.506 13.3471 39.3608 13.781ZM81.306 14.6426C80.5286 16.0902 81.1804 17.385 82.5116 17.0381C83.3296 16.8247 83.7922 15.4795 83.3106 14.7135C82.8235 13.9386 81.7052 13.8988 81.306 14.6426ZM8.85273 15.0039C8.36631 15.9098 8.97312 16.9293 9.99875 16.9293C10.9703 16.9293 11.6782 15.5305 11.0736 14.8043C10.5283 14.1494 9.24965 14.2643 8.85273 15.0039ZM71.8297 18.1664C71.2793 18.7728 71.4009 19.7461 72.086 20.2137C72.8177 20.713 73.8958 20.455 74.2418 19.6973C75.0032 18.0319 73.0675 16.8032 71.8297 18.1664ZM18.5907 18.2228C18.1188 18.4122 17.8664 18.7841 17.8664 19.2914C17.8664 20.6392 19.9138 20.9402 20.491 19.6774C21.177 18.1763 20.3284 17.5268 18.5907 18.2228ZM34.1821 18.8771C35.531 19.3883 36.3326 20.1874 35.821 20.5108C35.0871 20.9752 33.7459 20.7948 32.879 20.1148C31.2791 18.8605 32.0945 18.0858 34.1821 18.8771ZM46.678 20.2105C46.1468 20.3988 45.4225 20.7608 45.0684 21.0153C44.478 21.4392 44.5179 21.4552 45.5513 21.2091C47.7548 20.6838 50.1367 20.8821 51.2653 21.6843C52.1342 22.3021 52.3116 22.3406 52.3116 21.9106C52.3116 21.6256 51.9558 21.0384 51.5213 20.6052C50.8916 19.9772 50.4177 19.8225 49.1874 19.8427C48.3385 19.8565 47.2092 20.0221 46.678 20.2105ZM31.7002 22.1593C32.3083 23.224 31.9983 23.5198 30.848 22.9727C30.2351 22.6814 29.9052 22.2539 29.8366 21.6628C29.7445 20.8677 29.805 20.8105 30.4804 21.057C30.8905 21.2062 31.4394 21.7023 31.7002 22.1593ZM45.7927 22.4365C43.708 23.1957 45.8256 24.2695 48.1215 23.6177C48.9211 23.3905 49.7565 23.2432 49.9777 23.2901C50.6102 23.4242 50.4477 22.7641 49.7575 22.3958C48.9878 21.9853 46.9758 22.0059 45.7927 22.4365ZM51.6825 26.699C51.4701 26.9541 51.3439 27.4954 51.4015 27.9023C51.499 28.5881 51.6594 28.642 53.5992 28.642C55.2294 28.642 55.6917 28.5374 55.6917 28.1683C55.6917 27.4614 54.0361 26.972 53.266 27.4515C52.2758 28.0679 51.8969 27.9309 52.1219 27.0375C52.3521 26.1233 52.2362 26.0341 51.6825 26.699ZM52.2005 30.9938C51.9075 31.3166 51.6677 31.7136 51.6674 31.8763C51.6674 32.1372 57.4523 32.1086 57.7297 31.8461C57.7883 31.7909 57.6747 31.4444 57.477 31.0763C57.1667 30.4984 56.8181 30.4069 54.9255 30.4069C53.2107 30.4069 52.6174 30.5346 52.2005 30.9938ZM12.3832 33.9566C12.0674 34.5445 12.1163 34.7653 12.688 35.3352C13.5682 36.2129 14.4863 35.7267 14.4863 34.3831C14.4863 33.6152 14.3372 33.4384 13.6226 33.3559C13.0013 33.2844 12.6536 33.4528 12.3832 33.9566ZM52.7703 34.1052C53.541 34.8089 53.9166 34.9322 54.8405 34.7826C55.4612 34.6822 56.1913 34.3786 56.4627 34.1081C56.9063 33.6656 56.8065 33.6159 55.4789 33.6159C54.6664 33.6159 53.5126 33.5324 52.9151 33.4307L51.8287 33.2455L52.7703 34.1052ZM77.9725 33.4942C77.5402 33.9249 77.7372 35.4703 78.2491 35.6661C79.1311 36.0036 80.046 35.271 79.9353 34.3164C79.8599 33.6662 79.6353 33.432 79.0188 33.3604C78.5694 33.3081 78.0984 33.3685 77.9725 33.4942ZM36.4906 35.0557C37.6704 36.3951 38.255 38.3324 37.9569 39.9157C37.6869 41.3517 36.1906 43.0941 34.7967 43.5967C33.7778 43.9638 33.7485 44.0247 33.8882 45.4768C34.0209 46.8502 33.9462 47.0498 33.0071 47.8376C32.4428 48.3106 31.6667 48.6935 31.2817 48.6883C30.6517 48.6793 30.6382 48.646 31.1455 48.3514C31.9712 47.872 32.7422 46.2068 32.4963 45.4341C32.3112 44.853 32.2127 44.9297 31.7124 46.0432C31.1896 47.2067 30.5699 47.7353 29.7278 47.7353C29.5523 47.7353 29.7091 47.3547 30.0758 46.8897C31.0315 45.6786 30.9247 44.2568 29.7584 42.676C28.4594 40.9153 28.0928 39.5771 28.4984 38.0757C28.7433 37.1695 29.0559 36.8027 29.805 36.5424C30.6729 36.2408 30.8851 36.2953 31.5949 37.0029C32.5162 37.9213 32.4708 38.4132 31.4301 38.797C30.8062 39.0271 30.7296 38.9777 30.8963 38.4537C31.123 37.7416 30.7 37.3803 29.9673 37.6604C29.2053 37.9518 29.2864 39.9211 30.078 40.3434C31.0322 40.8524 32.5175 40.7391 33.0825 40.114C34.0312 39.0647 34.0466 38.0413 33.1395 36.3403C32.4081 34.9694 32.3794 34.824 32.9402 35.3298C34.5301 36.7642 35.1753 39.8374 34.1287 40.9904C33.8309 41.3186 33.0558 41.7281 32.4064 41.9004L31.226 42.2136L32.6746 42.2457C36.4526 42.3291 38.0764 38.5326 35.7341 35.0923C34.73 33.6175 35.2036 33.5944 36.4906 35.0557ZM3.94349 34.9251C3.12775 35.3988 3.20501 37.0295 4.06453 37.4884C5.76618 38.3962 7.14206 36.1814 5.56176 35.0782C4.72993 34.497 4.68744 34.4932 3.94349 34.9251ZM86.3965 35.1866C85.7478 35.7103 85.6879 35.9225 85.9661 36.7109C86.2371 37.4794 86.4686 37.6271 87.4005 37.6271C88.3325 37.6271 88.5639 37.4794 88.835 36.7109C89.1131 35.9225 89.0533 35.7103 88.4046 35.1866C87.9903 34.8523 87.5383 34.5785 87.4005 34.5785C87.2628 34.5785 86.8108 34.8523 86.3965 35.1866ZM52.3116 42.2836C52.3116 42.6381 52.0167 44.2484 51.6561 45.8616C50.944 49.049 50.7957 51.3139 51.1617 53.4141L51.3967 54.7606L49.6812 53.8454C48.2396 53.0762 45.0848 51.9974 37.1119 49.547L35.9157 49.1793L38.8113 46.2479L41.7073 43.3162L44.0315 43.0871C45.3102 42.9613 47.2977 42.5984 48.4485 42.2813C51.3786 41.4733 52.3116 41.4739 52.3116 42.2836ZM48.38 60.3436C58.6337 67.8589 59.2312 67.5095 49.8972 59.4563C45.3485 55.5317 43.9501 54.1532 44.5173 54.1532C45.8207 54.1532 51.6539 56.9405 56.6574 59.954C59.4778 61.6525 62.9348 64.2707 62.9348 64.7077C62.9348 65.3078 58.0768 67.0047 54.2431 67.7444C48.8567 68.7831 48.9932 68.7937 47.657 67.2438C47.0038 66.4858 45.6588 64.4218 44.6683 62.6569C43.6777 60.892 42.1721 58.251 41.3226 56.788C40.4727 55.3251 39.9493 54.234 40.1592 54.3633C40.3691 54.4927 44.0685 57.1837 48.38 60.3436ZM9.20619 55.0016C8.37114 55.5847 8.37049 57.2575 9.20522 57.778C9.93147 58.2311 11.3476 57.7992 11.5855 57.0525C12.0461 55.6055 10.3883 54.1763 9.20619 55.0016ZM81.2841 55.1159C80.4249 55.9723 80.4709 56.9158 81.4016 57.5238C82.5946 58.303 84.1814 57.4629 84.1814 56.0522C84.1814 55.5812 82.9394 54.4741 82.4108 54.4741C82.1452 54.4741 81.6382 54.7629 81.2841 55.1159ZM34.4242 56.264C35.1283 56.9658 35.5474 57.805 36.067 59.5535C36.6258 61.4336 37.5884 67.332 37.3717 67.548C37.1431 67.7758 33.04 66.9726 31.8009 66.4576C30.2564 65.8155 29.985 65.0363 30.1926 61.8412C30.3619 59.2368 30.9321 57.1718 31.7552 56.1835C32.2407 55.6001 33.8058 55.6473 34.4242 56.264Z" fill="#00A8E2"/>
</svg>
